<svg xmlns="http://www.w3.org/2000/svg" viewBox="0 0 480 340" width="100%" role="img" aria-label="Compounded 3-month SORA against the flat HDB concessionary rate, 2010 to 2026" class="viz" preserveAspectRatio="xMidYMid meet">
<title>HDB 2.6% against 3-month SORA</title>
<desc>SORA runs far below 2.6 per cent for more than a decade, rises above it from November 2022 to February 2025, then falls back below it from March 2025.</desc>

<style>
  .viz { --surface-1:#fcfcfb; --text-primary:#0b0b0b; --text-secondary:#52514e;
         --grid:#e4e3df; --series-1:#2a78d6; --series-2:#eb6834; }
  @media (prefers-color-scheme: dark) {
    .viz { --surface-1:#1a1a19; --text-primary:#ffffff; --text-secondary:#c3c2b7;
           --grid:#383835; --series-1:#3987e5; --series-2:#d95926; }
  }
  :root[data-theme="dark"] .viz { --surface-1:#1a1a19; --text-primary:#ffffff;
           --text-secondary:#c3c2b7; --grid:#383835; --series-1:#3987e5;
           --series-2:#d95926; }
  :root[data-theme="light"] .viz { --surface-1:#fcfcfb; --text-primary:#0b0b0b;
           --text-secondary:#52514e; --grid:#e4e3df; --series-1:#2a78d6;
           --series-2:#eb6834; }
  .viz text { font-family: ui-sans-serif, system-ui, -apple-system, Segoe UI,
              Roboto, Helvetica, Arial, sans-serif; }
  .ax   { font-size: 14px; fill: var(--text-secondary, #52514e); }
  .lbl  { font-size: 15px; font-weight: 600; }
  .note { font-size: 14px; fill: var(--text-secondary, #52514e); }
</style>

<rect x="0" y="0" width="480" height="340" fill="var(--surface-1, #fcfcfb)"/>
<line x1="60.0" y1="270.0" x2="330.0" y2="270.0" stroke="var(--grid, #e4e3df)" stroke-width="1"/>
<text class="ax" x="52.0" y="274.0" text-anchor="end">0%</text>
<line x1="60.0" y1="220.9" x2="330.0" y2="220.9" stroke="var(--grid, #e4e3df)" stroke-width="1"/>
<text class="ax" x="52.0" y="224.9" text-anchor="end">1%</text>
<line x1="60.0" y1="171.8" x2="330.0" y2="171.8" stroke="var(--grid, #e4e3df)" stroke-width="1"/>
<text class="ax" x="52.0" y="175.8" text-anchor="end">2%</text>
<line x1="60.0" y1="122.6" x2="330.0" y2="122.6" stroke="var(--grid, #e4e3df)" stroke-width="1"/>
<text class="ax" x="52.0" y="126.6" text-anchor="end">3%</text>
<line x1="60.0" y1="73.5" x2="330.0" y2="73.5" stroke="var(--grid, #e4e3df)" stroke-width="1"/>
<text class="ax" x="52.0" y="77.5" text-anchor="end">4%</text>
<text class="ax" x="60.0" y="290.0" text-anchor="middle">2010</text>
<text class="ax" x="125.5" y="290.0" text-anchor="middle">2014</text>
<text class="ax" x="190.9" y="290.0" text-anchor="middle">2018</text>
<text class="ax" x="256.4" y="290.0" text-anchor="middle">2022</text>
<text class="ax" x="321.8" y="290.0" text-anchor="middle">2026</text>
<line x1="60.0" y1="142.3" x2="330.0" y2="142.3" stroke="var(--series-2, #eb6834)" stroke-width="2"/>
<circle cx="330.0" cy="142.3" r="4" fill="var(--series-2, #eb6834)" stroke="var(--surface-1, #fcfcfb)" stroke-width="2"/><text class="lbl" x="340.0" y="146.3" fill="var(--series-2, #eb6834)">HDB 2.6%</text><text class="note" x="340.0" y="162.3">flat since 1999</text>
<path d="M 60.0 261.6 L 61.4 263.4 L 62.7 263.5 L 64.1 264.0 L 65.5 264.8 L 66.8 264.3 L 68.2 264.0 L 69.5 264.0 L 70.9 264.4 L 72.3 265.1 L 73.6 265.4 L 75.0 266.1 L 76.4 266.3 L 77.7 266.4 L 79.1 267.0 L 80.5 267.1 L 81.8 267.3 L 83.2 267.0 L 84.5 267.5 L 85.9 267.8 L 87.3 267.7 L 88.6 267.5 L 90.0 267.3 L 91.4 267.3 L 92.7 267.0 L 94.1 267.4 L 95.5 267.6 L 96.8 268.2 L 98.2 267.8 L 99.5 267.6 L 100.9 267.2 L 102.3 266.9 L 103.6 266.2 L 105.0 266.1 L 106.4 266.3 L 107.7 267.1 L 109.1 267.5 L 110.5 267.5 L 111.8 267.6 L 113.2 267.6 L 114.5 267.4 L 115.9 267.6 L 117.3 267.5 L 118.6 267.9 L 120.0 268.1 L 121.4 267.5 L 122.7 267.2 L 124.1 266.8 L 125.5 267.4 L 126.8 267.6 L 128.2 267.2 L 129.5 266.8 L 130.9 266.1 L 132.3 266.5 L 133.6 266.5 L 135.0 266.4 L 136.4 266.0 L 137.7 265.7 L 139.1 265.2 L 140.5 264.2 L 141.8 263.0 L 143.2 260.3 L 144.5 258.5 L 145.9 257.1 L 147.3 258.4 L 148.6 258.8 L 150.0 259.0 L 151.4 258.5 L 152.7 259.5 L 154.1 257.6 L 155.5 255.0 L 156.8 252.9 L 158.2 252.7 L 159.5 255.1 L 160.9 254.9 L 162.3 254.8 L 163.6 256.1 L 165.0 258.9 L 166.4 260.7 L 167.7 262.8 L 169.1 263.5 L 170.5 266.0 L 171.8 265.8 L 173.2 262.8 L 174.5 261.7 L 175.9 258.1 L 177.3 257.2 L 178.6 252.7 L 180.0 250.3 L 181.4 245.8 L 182.7 240.6 L 184.1 236.4 L 185.5 235.4 L 186.8 233.7 L 188.2 234.2 L 189.5 228.5 L 190.9 236.7 L 192.3 232.1 L 193.6 236.7 L 195.0 230.2 L 196.4 229.3 L 197.7 225.5 L 199.1 217.7 L 200.5 212.4 L 201.8 210.2 L 203.2 210.5 L 204.5 207.5 L 205.9 198.1 L 207.3 194.1 L 208.6 191.7 L 210.0 194.2 L 211.4 190.2 L 212.7 187.2 L 214.1 185.8 L 215.5 187.9 L 216.8 192.0 L 218.2 194.9 L 219.5 198.4 L 220.9 205.6 L 222.3 207.9 L 223.6 210.9 L 225.0 214.0 L 226.4 226.7 L 227.7 243.8 L 229.1 256.7 L 230.5 263.1 L 231.8 266.0 L 233.2 265.2 L 234.5 265.1 L 235.9 264.3 L 237.3 264.3 L 238.6 261.8 L 240.0 261.7 L 241.4 260.2 L 242.7 259.1 L 244.1 260.9 L 245.5 261.8 L 246.8 263.5 L 248.2 263.5 L 249.5 263.6 L 250.9 263.6 L 252.3 262.4 L 253.6 262.2 L 255.0 260.5 L 256.4 259.9 L 257.7 257.7 L 259.1 256.4 L 260.5 254.1 L 261.8 244.1 L 263.2 232.1 L 264.5 207.6 L 265.9 191.6 L 267.3 168.5 L 268.6 149.1 L 270.0 126.3 L 271.4 121.2 L 272.7 115.7 L 274.1 111.8 L 275.5 94.3 L 276.8 92.9 L 278.2 92.0 L 279.5 90.5 L 280.9 89.5 L 282.3 88.4 L 283.6 88.2 L 285.0 85.7 L 286.4 86.0 L 287.7 88.2 L 289.1 90.5 L 290.5 90.8 L 291.8 89.1 L 293.2 90.7 L 294.5 90.2 L 295.9 91.5 L 297.3 91.3 L 298.6 94.7 L 300.0 98.4 L 301.4 104.1 L 302.7 112.1 L 304.1 120.9 L 305.5 127.6 L 306.8 135.9 L 308.2 144.7 L 309.5 154.1 L 310.9 158.5 L 312.3 169.1 L 313.6 179.4 L 315.0 193.2 L 316.4 198.6 L 317.7 205.1 L 319.1 208.4 L 320.5 211.8 L 321.8 213.5 L 323.2 214.9 L 324.5 217.4 L 325.9 219.4 L 327.3 218.1 L 328.6 216.8 L 330.0 214.2" fill="none" stroke="var(--series-1, #2a78d6)" stroke-width="2.0" stroke-linejoin="round" stroke-linecap="round"/>
<circle cx="330.0" cy="214.2" r="4" fill="var(--series-1, #2a78d6)" stroke="var(--surface-1, #fcfcfb)" stroke-width="2"/><text class="lbl" x="340.0" y="218.2" fill="var(--series-1, #2a78d6)">1.14%</text><text class="note" x="340.0" y="234.2">3-month SORA</text>
<rect x="8.0" y="10.0" width="10" height="10" rx="2" fill="var(--series-1, #2a78d6)" fill-opacity="1.00"/>
<text class="ax" x="24.0" y="18.0">Compounded 3-month SORA</text>
<rect x="8.0" y="30.0" width="10" height="10" rx="2" fill="var(--series-2, #eb6834)" fill-opacity="1.00"/>
<text class="ax" x="24.0" y="38.0">HDB concessionary rate</text>
<text class="note" x="60.0" y="316.0">Monthly, 2010-01 to 2026-07.</text>
<text class="note" x="60.0" y="332.0">Source: MAS via data.gov.sg (F1); CPF Board (F2).</text>
</svg>
