<svg xmlns="http://www.w3.org/2000/svg" viewBox="0 0 480 340" width="100%" role="img" aria-label="Realised break-even spread by loan start year, 2010 to 2025" class="viz" preserveAspectRatio="xMidYMid meet">
<title>Break-even spread by start year</title>
<desc>Every 2010-2015 start clears the 1.0 threshold at every reset interval; the spread falls below zero from 2023.</desc>

<style>
  .viz { --surface-1:#fcfcfb; --text-primary:#0b0b0b; --text-secondary:#52514e;
         --grid:#e4e3df; --series-1:#2a78d6; --series-2:#eb6834; }
  @media (prefers-color-scheme: dark) {
    .viz { --surface-1:#1a1a19; --text-primary:#ffffff; --text-secondary:#c3c2b7;
           --grid:#383835; --series-1:#3987e5; --series-2:#d95926; }
  }
  :root[data-theme="dark"] .viz { --surface-1:#1a1a19; --text-primary:#ffffff;
           --text-secondary:#c3c2b7; --grid:#383835; --series-1:#3987e5;
           --series-2:#d95926; }
  :root[data-theme="light"] .viz { --surface-1:#fcfcfb; --text-primary:#0b0b0b;
           --text-secondary:#52514e; --grid:#e4e3df; --series-1:#2a78d6;
           --series-2:#eb6834; }
  .viz text { font-family: ui-sans-serif, system-ui, -apple-system, Segoe UI,
              Roboto, Helvetica, Arial, sans-serif; }
  .ax   { font-size: 14px; fill: var(--text-secondary, #52514e); }
  .lbl  { font-size: 15px; font-weight: 600; }
  .note { font-size: 14px; fill: var(--text-secondary, #52514e); }
</style>

<rect x="0" y="0" width="480" height="340" fill="var(--surface-1, #fcfcfb)"/>
<line x1="60.0" y1="241.5" x2="460.0" y2="241.5" stroke="var(--grid, #e4e3df)" stroke-width="1"/>
<text class="ax" x="52.0" y="245.5" text-anchor="end">-1</text>
<line x1="60.0" y1="184.6" x2="460.0" y2="184.6" stroke="var(--grid, #e4e3df)" stroke-width="1"/>
<text class="ax" x="52.0" y="188.6" text-anchor="end">0</text>
<line x1="60.0" y1="127.7" x2="460.0" y2="127.7" stroke="var(--grid, #e4e3df)" stroke-width="1"/>
<text class="ax" x="52.0" y="131.7" text-anchor="end">+1</text>
<line x1="60.0" y1="70.8" x2="460.0" y2="70.8" stroke="var(--grid, #e4e3df)" stroke-width="1"/>
<text class="ax" x="52.0" y="74.8" text-anchor="end">+2</text>
<text class="ax" x="60.0" y="290.0" text-anchor="middle">2010</text>
<text class="ax" x="166.7" y="290.0" text-anchor="middle">2014</text>
<text class="ax" x="273.3" y="290.0" text-anchor="middle">2018</text>
<text class="ax" x="380.0" y="290.0" text-anchor="middle">2022</text>
<text class="ax" x="460.0" y="290.0" text-anchor="middle">2025</text>
<path d="M 60.0 68.1 L 86.7 76.9 L 113.3 74.2 L 140.0 76.6 L 166.7 87.0 L 193.3 88.3 L 220.0 91.6 L 246.7 113.9 L 273.3 109.1 L 300.0 109.2 L 326.7 126.5 L 353.3 132.0 L 380.0 97.9 L 406.7 195.5 L 433.3 177.7 L 460.0 136.0 L 460.0 201.7 L 433.3 244.7 L 406.7 209.6 L 380.0 172.3 L 353.3 147.4 L 326.7 152.5 L 300.0 139.7 L 273.3 126.1 L 246.7 118.1 L 220.0 110.0 L 193.3 103.2 L 166.7 96.4 L 140.0 90.5 L 113.3 85.4 L 86.7 80.8 L 60.0 77.0 Z" fill="var(--series-2, #eb6834)" fill-opacity="0.14" stroke="var(--series-2, #eb6834)" stroke-width="1" stroke-dasharray="3 3"/>
<rect x="60.0" y="48.0" width="253.3" height="222.0" fill="var(--text-secondary, #52514e)" fill-opacity="0.06"/>
<text class="note" x="66.0" y="262.0">2010-2019: priced off SIBOR, quoted here over SORA</text>
<line x1="60.0" y1="127.7" x2="460.0" y2="127.7" stroke="var(--text-primary, #0b0b0b)" stroke-width="1.2" stroke-dasharray="2 2" stroke-opacity="0.55"/>
<path d="M 60.0 127.7 L 60.0 48.0 L 193.3 48.0 L 193.3 127.7" fill="none" stroke="var(--text-secondary, #52514e)" stroke-width="1" stroke-dasharray="2 2" stroke-opacity="0.6"/>
<text class="note" x="64.0" y="119.7">2010-2015</text>
<line x1="60.0" y1="184.6" x2="460.0" y2="184.6" stroke="var(--text-primary, #0b0b0b)" stroke-width="1.5" stroke-dasharray="4 3"/>
<text class="note" x="460.0" y="34.0" text-anchor="end">0 = HDB matched</text>
<path d="M 60.0 68.1 L 86.7 76.9 L 113.3 74.2 L 140.0 76.6 L 166.7 91.2 L 193.3 88.3 L 220.0 91.6 L 246.7 113.9 L 273.3 109.1 L 300.0 109.2 L 326.7 152.5 L 353.3 132.0 L 380.0 97.9 L 406.7 198.1 L 433.3 244.7 L 460.0 201.7" fill="none" stroke="var(--series-1, #2a78d6)" stroke-width="2.4" stroke-linejoin="round" stroke-linecap="round"/>
<circle cx="60.0" cy="68.1" r="3" fill="var(--series-1, #2a78d6)" fill-opacity="1.00"/>
<circle cx="86.7" cy="76.9" r="3" fill="var(--series-1, #2a78d6)" fill-opacity="1.00"/>
<circle cx="113.3" cy="74.2" r="3" fill="var(--series-1, #2a78d6)" fill-opacity="1.00"/>
<circle cx="140.0" cy="76.6" r="3" fill="var(--series-1, #2a78d6)" fill-opacity="1.00"/>
<circle cx="166.7" cy="91.2" r="3" fill="var(--series-1, #2a78d6)" fill-opacity="1.00"/>
<circle cx="193.3" cy="88.3" r="3" fill="var(--series-1, #2a78d6)" fill-opacity="1.00"/>
<circle cx="220.0" cy="91.6" r="3" fill="var(--series-1, #2a78d6)" fill-opacity="1.00"/>
<circle cx="246.7" cy="113.9" r="3" fill="var(--series-1, #2a78d6)" fill-opacity="1.00"/>
<circle cx="273.3" cy="109.1" r="3" fill="var(--series-1, #2a78d6)" fill-opacity="1.00"/>
<circle cx="300.0" cy="109.2" r="3" fill="var(--series-1, #2a78d6)" fill-opacity="1.00"/>
<circle cx="326.7" cy="152.5" r="3" fill="var(--series-1, #2a78d6)" fill-opacity="1.00"/>
<circle cx="353.3" cy="132.0" r="3" fill="var(--series-1, #2a78d6)" fill-opacity="1.00"/>
<circle cx="380.0" cy="97.9" r="3" fill="var(--series-1, #2a78d6)" fill-opacity="1.00"/>
<circle cx="406.7" cy="198.1" r="3" fill="var(--series-1, #2a78d6)" fill-opacity="1.00"/>
<circle cx="433.3" cy="244.7" r="3" fill="var(--series-1, #2a78d6)" fill-opacity="0.40"/>
<circle cx="460.0" cy="201.7" r="3" fill="var(--series-1, #2a78d6)" fill-opacity="0.40"/>
<text class="lbl" x="70.0" y="46.1" fill="var(--series-1, #2a78d6)">+2.05</text>
<text class="note" x="70.0" y="62.1">widest</text>
<text class="lbl" x="398.7" y="226.1" text-anchor="end" fill="var(--series-1, #2a78d6)">-0.24</text>
<text class="note" x="398.7" y="242.1" text-anchor="end">first below zero, every reset</text>
<rect x="60.0" y="8.0" width="10" height="10" rx="2" fill="var(--series-1, #2a78d6)"/><text class="ax" x="76.0" y="16.0">R2 realised</text>
<rect x="172.0" y="8.0" width="10" height="10" rx="2" fill="var(--series-2, #eb6834)" fill-opacity="0.14" stroke="var(--series-2, #eb6834)" stroke-width="1" stroke-dasharray="2 2"/><text class="ax" x="188.0" y="16.0">Reset range</text>
<line x1="284.0" y1="13.0" x2="296.0" y2="13.0" stroke="var(--text-primary, #0b0b0b)" stroke-width="1.2" stroke-dasharray="2 2" stroke-opacity="0.55"/><text class="ax" x="302.0" y="16.0">threshold 1.0</text>
<text class="note" x="60.0" y="316.0">Realised to 2026-07. S$400,000 over 25 years.</text>
<text class="note" x="60.0" y="332.0">2024 and 2025 dimmed: under 36 months realised.</text>
</svg>
