<svg xmlns="http://www.w3.org/2000/svg" viewBox="0 0 660 320" role="img" aria-label="Line chart. The share of Category A COE bids that succeed, by year, from 2010 to 2026. The line stays between 54 and 75 percent for the whole period, close to a flat average of 67 percent, while the premium over the same years moved by a factor of almost four." font-family="IBM Plex Sans, system-ui, sans-serif">
<line x1="56" y1="248.0" x2="512" y2="248.0" stroke="var(--fig-rule,#dfdeda)" stroke-width="1"/>
<text x="48" y="252.0" text-anchor="end" font-size="10.5" fill="var(--fig-ink-3,#8d9096)" font-variant-numeric="tabular-nums">0%</text>
<line x1="56" y1="197.0" x2="512" y2="197.0" stroke="var(--fig-rule,#dfdeda)" stroke-width="1"/>
<text x="48" y="201.0" text-anchor="end" font-size="10.5" fill="var(--fig-ink-3,#8d9096)" font-variant-numeric="tabular-nums">25%</text>
<line x1="56" y1="146.0" x2="512" y2="146.0" stroke="var(--fig-rule,#dfdeda)" stroke-width="1"/>
<text x="48" y="150.0" text-anchor="end" font-size="10.5" fill="var(--fig-ink-3,#8d9096)" font-variant-numeric="tabular-nums">50%</text>
<line x1="56" y1="95.0" x2="512" y2="95.0" stroke="var(--fig-rule,#dfdeda)" stroke-width="1"/>
<text x="48" y="99.0" text-anchor="end" font-size="10.5" fill="var(--fig-ink-3,#8d9096)" font-variant-numeric="tabular-nums">75%</text>
<line x1="56" y1="44.0" x2="512" y2="44.0" stroke="var(--fig-rule,#dfdeda)" stroke-width="1"/>
<text x="48" y="48.0" text-anchor="end" font-size="10.5" fill="var(--fig-ink-3,#8d9096)" font-variant-numeric="tabular-nums">100%</text>
<rect x="56" y="95.1" width="456" height="43.2" fill="var(--fig-context,#8d9096)" opacity="0.13"/>
<text x="506" y="88.1" text-anchor="end" font-size="10.5" fill="var(--fig-ink-3,#8d9096)">every year sits inside this band</text>
<text x="56.0" y="267" text-anchor="middle" font-size="10.5" fill="var(--fig-ink-3,#8d9096)">2010</text>
<text x="170.0" y="267" text-anchor="middle" font-size="10.5" fill="var(--fig-ink-3,#8d9096)">2014</text>
<text x="284.0" y="267" text-anchor="middle" font-size="10.5" fill="var(--fig-ink-3,#8d9096)">2018</text>
<text x="398.0" y="267" text-anchor="middle" font-size="10.5" fill="var(--fig-ink-3,#8d9096)">2022</text>
<text x="512.0" y="267" text-anchor="middle" font-size="10.5" fill="var(--fig-ink-3,#8d9096)">2026</text>
<polyline points="56.0,106.5 84.5,124.2 113.0,108.1 141.5,138.3 170.0,128.5 198.5,109.3 227.0,112.0 255.5,95.1 284.0,97.2 312.5,102.3 341.0,116.9 369.5,102.1 398.0,103.7 426.5,100.4 455.0,117.4 483.5,113.4 512.0,116.2" fill="none" stroke="var(--fig-subject,#a32a1e)" stroke-width="2.4" stroke-linejoin="round" stroke-linecap="round"/>
<circle cx="512.0" cy="116.2" r="4.5" fill="var(--fig-subject,#a32a1e)"/>
<text x="524" y="117.2" font-size="12.5" fill="var(--fig-subject,#a32a1e)" font-weight="600">65% in 2026</text>
<text x="524" y="133.2" font-size="10.5" fill="var(--fig-ink-3,#8d9096)">67% on average</text>
<text x="56" y="294" font-size="11" fill="var(--fig-ink-3,#8d9096)">Share of Category A bids that succeeded, annual means of 24 bidding exercises.</text>
<text x="56" y="309" font-size="11" fill="var(--fig-ink-3,#8d9096)">Over the same years the average premium ran from $29,907 to $117,548.</text>
</svg>
